<svg xmlns="http://www.w3.org/2000/svg" id="gopher" style="fill-rule:evenodd;clip-rule:evenodd;stroke-linecap:round;stroke-linejoin:round;stroke-miterlimit:1.5;" viewBox="0 0 272 282" width="100%" height="100%" xmlns:xml="http://www.w3.org/XML/1998/namespace" xml:space="preserve" xmlns:xlink="http://www.w3.org/1999/xlink" version="1.1">
    <g transform="matrix(1.09329 0 0 1.09329 -135.183 -11.6982)">
        <path class="gopher-cape animated" style="fill:rgb(201,23,126);stroke:rgb(201,23,126);stroke-width:4px;" d="M 167.376 132.778 C 165.4 163.47 157.387 172.184 150.142 191.552 C 140.361 210.573 133.102 214.357 127.626 223.012 C 131.508 226.814 144.79 238.814 159.006 243.911 C 199.917 251.86 250.261 251.499 284.105 243.911 C 312.297 238.453 330.566 241.986 350.858 258.146 C 352.025 218.523 351.604 171.276 333.752 132.778" />
    </g>
    <g transform="matrix(1.09329 0 0 1.09329 20.0647 -11.6982)">
        <path style="fill:rgb(140,197,231);fill-rule:nonzero;" d="M 207.3 44.6 C 200.6 30.9 184.4 43 180.3 38.7 C 159.3 17.1 133.9 11.7 114 10.7 L 103 10.7 C 83 11.2 57.6 17 36.7 38.7 C 32.6 43 16.3 30.9 9.7 44.6 C 2 60.6 25.4 62.2 24.2 69.3 C 21.9 82.1 23.4 101.1 25.2 119.8 C 28 151.5 4.3 227.4 53.6 257.9 C 62.9 263.7 88 266.9 109.8 267.4 L 110 267.4 C 131.8 266.9 153.9 263.7 163.2 257.9 C 212.6 227.4 188.9 151.5 191.8 119.8 C 193.5 101.1 195 82.1 192.8 69.3 C 191.6 62.2 215 60.5 207.3 44.6 Z" />
    </g>
    <g transform="matrix(1.09329 0 0 1.09329 20.0647 -11.6982)">
        <path style="fill:rgb(224,222,220);fill-rule:nonzero;" d="M 143.2 54.3 C 109.8 58.2 114.3 93 127.2 104.3 C 151.2 125.3 176.2 104.3 173.4 83.1 C 170.9 62.7 153.6 53.1 143.2 54.3 Z" />
    </g>
    <g transform="matrix(1.09329 0 0 1.09329 20.0647 -11.6982)">
        <path class="eyes" style="fill:rgb(17,18,18);" d="M 145.5 72.9 C 151.792 72.9 156.9 78.008 156.9 84.3 C 156.9 90.592 151.792 95.7 145.5 95.7 C 139.208 95.7 134.1 90.592 134.1 84.3 C 134.1 78.008 139.208 72.9 145.5 72.9 Z M 71.356 72.746 C 77.648 72.746 82.756 77.854 82.756 84.146 C 82.756 90.438 77.648 95.546 71.356 95.546 C 65.064 95.546 59.956 90.438 59.956 84.146 C 59.956 77.854 65.064 72.746 71.356 72.746 Z" />
    </g>
    <g transform="matrix(1.09329 0 0 1.09329 20.0647 -11.6982)">
        <path style="fill:white;" d="M 142.5 75.8 C 144.487 75.8 146.1 77.413 146.1 79.4 C 146.1 81.387 144.487 83 142.5 83 C 140.513 83 138.9 81.387 138.9 79.4 C 138.9 77.413 140.513 75.8 142.5 75.8 Z M 74.274 75.192 C 76.261 75.192 77.874 76.805 77.874 78.792 C 77.874 80.779 76.261 82.392 74.274 82.392 C 72.287 82.392 70.674 80.779 70.674 78.792 C 70.674 76.805 72.287 75.192 74.274 75.192 Z" />
    </g>
    <g transform="matrix(1.09329 0 0 1.09329 20.0647 -11.6982)">
        <path style="fill:rgb(184,147,127);fill-rule:nonzero;" d="M 108.5 107 C 92.5 109.4 86.8 114 88 121.2 C 90 133 127.7 131.7 128.9 121.8 C 129.9 113.3 114.8 106.1 108.5 107 Z" />
    </g>
    <g transform="matrix(1.09329 0 0 1.09329 20.0647 -11.6982)">
        <path style="fill-rule:nonzero;" d="M 98.2 111.8 C 95.5 121.6 119.9 120.1 119.3 113.8 C 119 110.1 115.7 105.4 107 105.6 C 103.6 105.7 99.4 107.2 98.2 111.8 Z" />
    </g>
    <g transform="matrix(1.09329 0 0 1.09329 20.0647 -11.6982)">
        <path style="fill:rgb(224,222,220);fill-rule:nonzero;" d="M 99 127.7 C 98.1 128.1 96.6 137.9 101.2 138.4 C 104.3 138.7 112.8 139.7 114.8 138.4 C 118.7 135.9 118.3 129.9 116.1 128.4 C 112.4 126 100 127.2 99 127.7 Z M 73.6 54.3 C 107 58.2 102.5 93 89.6 104.3 C 65.6 125.3 40.6 104.3 43.4 83.1 C 46 62.7 63.3 53.1 73.6 54.3 Z" />
    </g>
    <g transform="matrix(1.09329 0 0 1.09329 20.0647 -11.6982)">
        <circle class="eyes" style="fill:rgb(17,18,18);" cx="71.4" cy="84.3" r="11.4" />
    </g>
    <g transform="matrix(1.09329 0 0 1.09329 20.0647 -11.6982)">
        <circle style="fill:white;" cx="74.4" cy="79.4" r="3.6" />
    </g>
    <g transform="matrix(1.09329 0 0 1.09329 20.0647 -11.6982)">
        <path style="fill:rgb(184,147,127);fill-rule:nonzero;" d="M 193.6 186.7 C 204.6 186.8 199.2 163.2 192.4 167.9 C 189.1 170.2 188.5 175.5 188.5 180 C 188.5 182.5 190.5 186.6 193.6 186.7 Z M 23.3 186.7 C 12.3 186.8 17.7 163.2 24.5 167.9 C 27.8 170.2 28.4 175.5 28.4 180 C 28.4 182.5 26.4 186.6 23.3 186.7 Z M 172.7 259.2 C 166.7 250.3 161.3 257.2 152.6 261.6 C 148.5 263.7 159.4 271.2 171.6 265.6 C 174.8 264.1 174.7 262.1 172.7 259.2 Z M 44.2 260.2 C 50.2 251.3 55.6 258.2 64.3 262.6 C 68.4 264.7 57.5 272.2 45.3 266.6 C 42.1 265.1 42.2 263.1 44.2 260.2 Z" />
    </g>
    <g transform="matrix(1.09329 0 0 1.09329 20.0647 -11.6982)">
        <path style="fill:rgb(0,131,192);fill-rule:nonzero;" d="M 188.6 47 C 188 49.1 190.7 48.8 191.7 55.3 C 192.1 57.7 200.7 51.8 197.2 47.5 C 194.3 43.9 189.1 44.9 188.6 47 Z M 28.3 47 C 28.9 49.1 26.2 48.8 25.2 55.3 C 24.8 57.7 16.2 51.8 19.7 47.5 C 22.5 43.9 27.7 44.9 28.3 47 Z" />
    </g>
    <g transform="matrix(0.219817 0 0 0.219817 92.037 155.985)">
        <g transform="matrix(2.08706 0 0 2.08706 -39.3863 -48.2414)">
            <path class="gopher-badge animated" style="fill:rgb(255,64,136);" d="M 119.631 36.154 L 203.822 85.066 L 203.822 181.395 L 119.631 229.184 L 35.578 181.395 L 35.578 85.066 L 119.631 36.154 Z" />
            <path class="gopher-badge animated" style="fill:rgb(201,23,126);" d="M 207.664 81.239 L 209.061 83.666 L 209.061 182.809 L 207.638 185.253 L 121.013 234.423 L 118.245 234.422 L 31.761 185.251 L 30.34 182.808 L 30.34 83.667 L 31.735 81.242 L 118.217 30.916 L 121.041 30.915 L 207.664 81.239 Z M 40.817 88.078 L 40.817 178.348 L 119.633 223.159 L 198.584 178.345 L 198.584 88.081 L 119.633 42.214 L 40.817 88.078 Z" />
        </g>
        <g transform="matrix(1.95678 0 0 2.21729 -55.1262 110.024)">
            <path class="gopher-badge animated" style="fill:white;fill-rule:nonzero;" d="M 179.238 106.552 L 154.758 106.552 L 154.758 62.2 L 112.134 62.2 L 112.134 106.552 L 87.654 106.552 L 87.654 1.648 L 112.134 1.648 L 112.134 45.496 L 154.758 45.496 L 154.758 1.648 L 179.238 1.648 L 179.238 106.552 Z" />
        </g>
    </g>
    <g transform="matrix(1.09329 0 0 1.09329 -135.318 -8.1299)">
        <path class="gopher-cape animated" style="fill:none;stroke:rgb(201,23,126);stroke-width:4px;" d="M 167.5 129.514 C 184.792 131.141 216.708 134.608 250.124 148.407 C 283.576 136.181 294.915 129.585 333.876 129.514" />
    </g>
    <g transform="matrix(1 0 0 1 -1.47026 0)">
        <g transform="matrix(1.09203 0 0 1 -11.2404 3.14785)">
            <path class="gopher-cape animated" style="fill:rgb(201,23,126);" d="M 103.229 44.41 C 127.646 44.41 141.964 60.067 145.637 76.405 C 149.492 93.554 120.688 108.4 96.272 108.4 C 71.856 108.4 58.627 77.601 58.627 59.942 C 58.627 42.284 78.813 44.41 103.229 44.41 Z M 103.229 59.942 C 117.928 59.942 128.366 65.775 128.366 76.405 C 128.366 87.035 117.928 95.666 103.229 95.666 C 88.531 95.666 75.079 82.622 75.079 71.992 C 75.079 61.361 88.531 59.942 103.229 59.942 Z" />
        </g>
        <g transform="matrix(1.05263 0 0 1 75.8327 3.14785)">
            <path class="gopher-cape animated" style="fill:rgb(201,23,126);" d="M 101.398 44.41 C 125.814 44.41 141.107 42.439 141.107 60.097 C 141.107 77.755 125.814 108.4 101.398 108.4 C 76.982 108.4 57.159 94.063 57.159 76.405 C 57.159 58.747 76.982 44.41 101.398 44.41 Z M 98.548 60.097 C 113.14 60.097 125.888 60.912 125.888 71.466 C 125.888 82.019 113.14 95.527 98.548 95.527 C 83.955 95.527 72.108 86.959 72.108 76.405 C 72.108 65.851 83.955 60.097 98.548 60.097 Z" />
        </g>
    </g>
</svg>